<svg id="eTDZ0WKGzjR1" xmlns="http://www.w3.org/2000/svg" xmlns:xlink="http://www.w3.org/1999/xlink" viewBox="0 0 300 300" shape-rendering="geometricPrecision" text-rendering="geometricPrecision">

<g id="eTDZ0WKGzjR2_tr" transform="translate(149.999999,171.01197) rotate(0)"><g transform="translate(-88.664764,-155.04216)"><g transform="translate(.000001 0)"><g transform="translate(-6.658095 64.742458)"><path d="M177.87286,163.67741h-165.100013c-3.377227,0-6.114752-2.73753-6.114752-6.11475v-134.52592c0-3.377226,2.737525-6.114751,6.114752-6.114751h165.100013c3.37723,0,6.11476,2.737525,6.11476,6.114751v134.52592c0,3.37722-2.73753,6.11475-6.11476,6.11475Z" fill="#afb9d2" stroke-width="0.346347"/><rect width="116.181" height="30.5741" rx="0" ry="0" transform="translate(37.2322 16.922)" fill="#959cb3" stroke-width="0.346347"/><g transform="matrix(.346347 0 0 0.346347 6.6581 1.63494)"><path d="M476.69,432.552h-441.38c-9.751,0-17.655-7.904-17.655-17.655v-264.828c0-9.751,7.904-17.655,17.655-17.655h441.38c9.751,0,17.655,7.904,17.655,17.655v264.828c0,9.751-7.904,17.655-17.655,17.655Z" fill="#707487"/><circle r="26.483" transform="translate(150.069 88.276)" fill="#707487"/></g><path d="M162.58581,139.21805h-134.525911c-1.68844,0-3.057549-1.3691-3.057549-3.05754v-61.147864c0-1.68844,1.369109-3.057549,3.057549-3.057549h134.525911c1.68844,0,3.05755,1.369109,3.05755,3.057549v61.148204c-.00034,1.68844-1.36911,3.0572-3.05755,3.0572Z" fill="#ffd764" stroke-width="0.346347"/><path d="M162.58581,65.840346h-134.525912c-1.68844,0-3.057549-1.369108-3.057549-3.057549s1.369109-3.057549,3.057549-3.057549h134.525912c1.68844,0,3.05755,1.369109,3.05755,3.057549s-1.36911,3.057549-3.05755,3.057549Z" fill="#e4eaf6" stroke-width="0.346347"/><path d="M113.66746,38.323792h-36.689205c-1.68844,0-3.057549-1.369109-3.057549-3.057549v-6.114751c0-1.688441,1.369109-3.057549,3.057549-3.057549h36.688855c1.68844,0,3.05755,1.369108,3.05755,3.057549v6.114751c0,1.68844-1.36876,3.057549-3.0572,3.057549Z" fill="#ffd764" stroke-width="0.346347"/><g transform="matrix(.346347 0 0 0.346347 6.6581 1.63494)"><path d="M246.06,336.561c-2.259,0-4.518-.862-6.241-2.586l-86.966-87c-3.448-3.448-3.448-9.038,0-12.483c3.448-3.448,9.035-3.448,12.483,0l86.966,87c3.448,3.448,3.448,9.038,0,12.483-1.724,1.724-3.983,2.586-6.242,2.586Z" fill="#ffe678"/><path d="M344.276,383.996c-2.259,0-4.517-.862-6.241-2.586l-48.518-48.53c-3.448-3.448-3.448-9.038,0-12.483c3.448-3.448,9.035-3.448,12.483,0l48.517,48.53c3.448,3.448,3.448,9.038,0,12.483-1.724,1.724-3.982,2.586-6.241,2.586Z" fill="#ffe678"/></g><path d="M99.923725,108.65019c-.782397,0-1.56618-.29855-2.16155-.89566l-6.887797-6.89126c-1.194203-1.194201-1.194203-3.130279,0-4.323443c1.194204-1.194204,3.132014-1.194204,4.323446,0l6.887796,6.890913c1.19421,1.1942,1.19421,3.13028,0,4.32345-.5971.5971-1.3795.896-2.161895.896Z" fill="#fff08c" stroke-width="0.346347"/><path d="M162.58581,71.955097h-134.525912c-1.68844,0-3.057549,1.369109-3.057549,3.057549v6.114752c0-1.688441,1.369109-3.057549,3.057549-3.057549h134.525912c1.68844,0,3.05755,1.369108,3.05755,3.057549v-6.114752c-.00034-1.68844-1.36911-3.057549-3.05755-3.057549Z" fill="#ffbe5a" stroke-width="0.346347"/><path d="M64.748752,41.381341c-.782397,0-1.564794-.298551-2.161549-.895653L50.3577,28.256185c-1.194204-1.194203-1.194204-3.129242,0-4.323446s3.129243-1.194203,4.323446,0L66.910649,36.162242c1.194203,1.194204,1.194203,3.129243,0,4.323446-.597102.597102-1.379499.895653-2.161897.895653Z" fill="#afb9d2" stroke-width="0.346347"/><circle r="9.1723" transform="translate(132.012 32.209)" fill="#707487" stroke-width="0.346347"/><path d="M138.12646,41.381341c-.7824,0-1.56479-.298551-2.16155-.895653l-12.2295-12.229503c-1.1942-1.194203-1.1942-3.129242,0-4.323446s3.12924-1.194203,4.32344,0l12.22951,12.229503c1.1942,1.194204,1.1942,3.129243,0,4.323446-.5971.597102-1.3795.895653-2.1619.895653Z" fill="#afb9d2" stroke-width="0.346347"/></g></g></g></g><g id="eTDZ0WKGzjR21_to" transform="translate(149.614958,55)"><path d="M53.144657,-36.610625c.482865,1.064947,1.27,2.037291,1.997605,2.93026c2.242343,2.791354,4.99401,5.093229,7.3025,7.838281.496093.714375.93927,1.441979,1.322916,2.215886.211667.654843.370417,1.303073.502709,1.97776.03307.47625.0463.945885.03307,1.422135-.14552.668073-.330729,1.322917-.555625,1.977761-.403489.840052-.859895,1.627187-1.382447,2.401094-.47625.54901-.972344,1.084791-1.461823,1.627187-2.090209,2.229115-2.215886,5.721615,0,7.924272c1.038489,1.051719,2.480468,1.647031,3.96875,1.647031c1.322916,0,3.115468-.542396,3.96875-1.647031c1.594114-2.050522,3.201458-4.074584,4.345781-6.422761c1.349375-2.791355,2.176198-5.734844,2.076979-8.830469-.105833-2.8575-.945885-5.589323-2.29526-8.083021-1.322917-2.45401-3.360209-4.590521-5.331355-6.548438-1.481666-1.488281-3.042708-2.890572-4.418541-4.484687-.277813-.423333-.535781-.846667-.767292-1.283229-.06615-.198438-.119062-.396875-.171979-.595313c0-.205052,0-.410104.01323-.615156.191823-.800364.443177-1.574271.747448-2.341562.899583-1.931459,1.997604-3.724011,3.274219-5.437188.463021-.595312.926042-1.197239,1.395677-1.785937.932656-1.190625,1.594114-2.268802,1.594114-3.836459c0-1.441979-.568854-2.824427-1.594114-3.836458-1.012031-1.02526-2.401094-1.594115-3.836458-1.594115-.972344,0-1.891771.24474-2.738438.740834-.820208.482864-1.468437,1.131093-1.944687,1.944687-1.27,1.647031-2.526771,3.280834-3.631407,5.033698-1.389062,2.202656-2.401093,4.696354-3.227916,7.14375-.396875,1.144323-.641615,2.520156-.694532,3.73724-.06615,1.190625.105834,2.334948.271198,3.525573.171979,1.131093.780521,2.235729,1.236928,3.254375Zm32.431302-2.46724c.456407,1.03849.945886,2.050521,1.580886,2.983177c1.27,1.905,2.817812,3.57849,4.273022,5.32474.5887.813593,1.15755,1.640416,1.69333,2.493698.48287.773906.87313,1.594114,1.24354,2.427552.39688,1.091406.72099,2.182812.94589,3.313906.0463.932656.0265,1.845469-.0529,2.778125-.2712,1.402292-.68791,2.725208-1.20385,4.048125-.58208,1.283229-1.19063,2.559844-1.84547,3.816614-1.46844,2.791355-.74083,6.264012,2.07698,7.911043c2.659064,1.554427,6.422763.701146,7.924283-2.076979c1.19062-2.215886,2.18943-4.537605,3.1287-6.885782.46963-1.177396.80698-2.414323,1.06495-3.657865.7276-3.525573.635-6.951927-.23151-10.444427-.45641-1.878542-1.29646-3.836458-2.21589-5.536406-.64823-1.190625-1.32292-2.30849-2.11667-3.426354-.87975-1.243542-1.852089-2.440782-2.850889-3.591719-.61516-.72099-1.28985-1.395677-1.91823-2.096823-.496104-.740833-.939274-1.481667-1.336154-2.268802-.11906-.363802-.22489-.727604-.3175-1.091406.086-.390261.19183-.773907.3175-1.164167c1.660264-3.538802,3.856304-6.733646,6.058973-9.968177c1.75287-2.566458.49609-6.303698-2.050529-7.785365-.9062-.522552-1.8587-.767291-2.79135-.767291-1.957924,0-3.823234,1.071562-4.994014,2.811198-1.33615,1.984375-2.672296,3.96875-3.849692,6.045729-1.468438,2.566458-2.983177,5.344583-3.604948,8.248385-.119063.674688-.205052,1.362604-.284427,2.050521-.145521.820208-.0926,1.633802.119062,2.440781.198438,1.461823.654844,2.718594,1.236927,4.067969Zm32.775271,5.509948c-.40349-1.67349-.51593-3.33375-.39026-5.046927.19183-2.334948.95912-4.511146,1.69995-6.707188.55563-1.673489,1.19063-3.320521,1.87854-4.941093-.19182.456406-.39026.919427-.59531,1.389062.89297-2.116667,1.76609-4.226719,2.71198-6.316927.59531-1.309688,2.15635-2.30849,3.4925-2.672292.50932-.138906,1.03187-.211666,1.54781-.211666c1.02526,0,2.04391.271198,2.93688.79375c1.30968.767291,2.28203,2.024062,2.68552,3.4925.44317,1.620573.10583,3.022864-.58209,4.484687-.66145,1.395677-1.28323,2.817813-1.91161,4.226719-.92604,2.348177-1.93807,4.729427-2.50693,7.190052-.007.185208-.0132.363802-.007.542396.69453.687916,1.42213,1.336146,2.19604,1.944687c1.48167,1.170782,2.75167,2.454011,3.80338,4.048125c1.98438,3.022865,3.34698,6.521979,3.65787,10.140157.35057,4.213489-1.01203,8.274843-2.85089,11.998854-1.01203,2.050522-2.29526,3.776928-3.69755,5.576094-.86651,1.131094-2.69875,1.67349-4.06135,1.67349-1.51474,0-2.98318-.595312-4.04813-1.67349-1.07817-1.078177-1.68672-2.54-1.68672-4.061355c0-1.620573.67469-2.837656,1.68672-4.048125.2249-.277812.44979-.54901.6813-.826823.5424-.800364.98558-1.633802,1.39568-2.500312.45641-1.210469.84005-2.394479,1.09802-3.644636.0265-.635.0265-1.250156-.0198-1.878541-.14552-.714375-.33735-1.408906-.5887-2.103438-.43656-.919427-.9062-1.812396-1.47505-2.665677-1.14432-1.210469-2.50693-2.13651-3.73063-3.280833-1.42213-1.336146-2.85088-2.969948-3.32052-4.92125Zm10.96698-3.57849c.0728.105834.15214.205052.23151.297657-.0794-.09922-.15875-.198438-.23151-.297657Z" transform="translate(-95.322857,33.352947)" fill="#707487" stroke-width="6.61458"/></g></svg>
