<svg width="71" height="54" viewBox="0 0 71 54" fill="none" xmlns="http://www.w3.org/2000/svg">
<path d="M63.5627 52.443H7.4371C4.12992 52.443 1.44897 50.0263 1.44897 47.0453V21.2694C1.44897 18.2883 4.13006 15.8716 7.4371 15.8716H63.5627C66.8699 15.8716 69.5509 18.2884 69.5509 21.2694V47.0451C69.551 50.0263 66.8699 52.443 63.5627 52.443Z" fill="#FCDEB0"/>
<path d="M63.5627 15.8715H7.4371C4.12992 15.8715 1.44897 18.2882 1.44897 21.2692V33.2582C1.44897 35.2906 3.25032 36.9425 5.48876 36.9812C7.79862 37.0212 9.68941 35.2727 9.68941 33.1847V31.3642C9.68941 28.7949 11.967 26.7061 14.7971 26.6572C17.7175 26.6067 20.108 28.8175 20.108 31.4572V36.0662C20.108 38.6356 22.3855 40.7244 25.2157 40.7732C28.1361 40.8237 30.5265 38.613 30.5265 35.9732V30.9651C30.5265 28.8771 32.4172 27.1286 34.7272 27.1686C36.9656 27.2072 38.767 28.8592 38.767 30.8916V33.1725C38.767 35.7419 41.0445 37.8306 43.8747 37.8795C46.7951 37.93 49.1855 35.7192 49.1855 33.0795V30.9651C49.1855 28.8771 51.0762 27.1286 53.3862 27.1686C55.6246 27.2072 57.426 28.8592 57.426 30.8916V37.0511C57.426 39.0835 59.2273 40.7354 61.4657 40.7741H61.4721C63.7106 40.7355 65.5119 39.0834 65.5119 37.0511V30.1334C65.5119 28.101 67.3133 26.449 69.5517 26.4104V21.2692C69.551 18.2882 66.8699 15.8715 63.5627 15.8715Z" fill="#A27430"/>
<path d="M35.9227 5.75688C36.0834 5.28813 36.5862 4.97251 36.9818 4.61826C41.3137 0.737881 49.3091 1.65651 49.3755 1.66363L49.3765 1.66226V1.66413L49.3794 1.66376L49.3787 1.66513C49.382 1.69638 50.3624 8.92888 46.023 12.8179C41.6839 16.7046 33.6627 15.7766 33.6282 15.7704L33.627 15.7731L35.9227 5.75688Z" fill="#FCDEB0"/>
<path d="M29.168 15.8718C33.3893 15.8718 36.8113 12.7871 36.8113 8.982C36.8113 5.1769 33.3893 2.09225 29.168 2.09225C24.9467 2.09225 21.5247 5.1769 21.5247 8.982C21.5247 12.7871 24.9467 15.8718 29.168 15.8718Z" fill="#FCCAB0"/>
<path d="M44.8409 7.01323C44.4701 7.01323 44.0992 6.88573 43.8164 6.63061C43.2506 6.12061 43.2506 5.29348 43.8164 4.78336L43.8299 4.77123C44.3957 4.26123 45.3132 4.26123 45.8792 4.77123C46.445 5.28123 46.445 6.10836 45.8792 6.61848L45.8657 6.63061C45.5826 6.88573 45.2117 7.01323 44.8409 7.01323Z" fill="black"/>
<path d="M63.5628 14.5654H45.9941C46.3591 14.3151 46.7112 14.0428 47.0448 13.744C51.661 9.60689 50.9346 2.44714 50.8213 1.53901C50.7542 0.918762 50.1887 0.414387 49.4995 0.361637C48.3886 0.243637 40.6386 -0.411238 36.039 3.62364C34.3705 1.88739 31.9099 0.785887 29.1675 0.785887C24.1539 0.785887 20.0753 4.46251 20.0753 8.98176C20.0753 11.1378 21.005 13.1008 22.5203 14.5654H7.43711C3.33631 14.5654 0 17.5728 0 21.2694V47.0451C0 50.7418 3.33631 53.749 7.43711 53.749H63.5628C67.6637 53.749 70.9999 50.7416 70.9999 47.0451V21.2694C71 17.5728 67.6637 14.5654 63.5628 14.5654ZM37.6791 5.81951C37.7896 5.72864 37.8994 5.63776 38.0032 5.54476C40.8527 2.99239 45.7675 2.81914 48.0178 2.88889C48.0907 4.91401 47.8801 9.31164 45.0017 11.8914C42.8384 13.8291 39.5488 14.402 37.0979 14.534L42.5508 9.61876C43.1166 9.10876 43.1167 8.28164 42.5508 7.77151C41.9849 7.26164 41.0674 7.26164 40.5016 7.77151L38.2099 9.83726C38.2424 9.55601 38.2596 9.27064 38.2596 8.98176C38.2596 7.89001 38.0197 6.84839 37.5878 5.89489C37.6199 5.86839 37.6511 5.84264 37.6791 5.81951ZM22.9729 8.98176C22.9729 5.90301 25.7518 3.39814 29.1673 3.39814C32.5828 3.39814 35.3616 5.90301 35.3616 8.98176C35.3616 12.0605 32.5828 14.5654 29.1673 14.5654C25.7518 14.5654 22.9729 12.0605 22.9729 8.98176ZM2.89796 21.2694C2.89796 19.0131 4.93422 17.1776 7.43725 17.1776H63.5629C66.0659 17.1776 68.1022 19.0131 68.1022 21.2694V25.2998C65.778 25.9066 64.0624 27.8569 64.0624 30.1335V37.0513C64.0624 38.3518 62.901 39.4311 61.4684 39.4678C60.0358 39.431 58.8744 38.3516 58.8744 37.0511V30.8916C58.8744 28.1708 56.4246 25.9148 53.4135 25.8628C51.9328 25.8376 50.5236 26.3465 49.4483 27.2971C48.3601 28.2594 47.7361 29.5963 47.7361 30.9651V33.0795C47.7361 34.0211 47.3056 34.9418 46.5548 35.6056C45.8295 36.2469 44.8864 36.5896 43.902 36.5736C41.8693 36.5385 40.2157 35.0126 40.2157 33.1725V30.8915C40.2157 28.1706 37.7659 25.9146 34.7548 25.8626C33.2728 25.8375 31.8646 26.3464 30.7896 27.297C29.7014 28.2593 29.0774 29.5961 29.0774 30.965V35.9731C29.0774 36.9146 28.6468 37.8354 27.8961 38.4993C27.1708 39.1405 26.2265 39.4831 25.2434 39.4673C23.2108 39.4321 21.5571 37.9063 21.5571 36.0661V31.4571C21.5571 29.8186 20.8101 28.2183 19.5072 27.0663C18.222 25.9296 16.5404 25.3171 14.7695 25.3513C11.1696 25.4134 8.24072 28.1109 8.24072 31.3641V33.1846C8.24072 33.8565 7.93328 34.5136 7.39717 34.9878C6.88215 35.4433 6.21375 35.687 5.51692 35.6753C4.07252 35.6508 2.89783 34.5664 2.89783 33.2585V21.2694H2.89796ZM63.5628 51.1369H7.43711C4.93408 51.1369 2.89783 49.3014 2.89783 47.0451V37.664C3.6626 38.0461 4.53499 38.2713 5.46076 38.2871C6.94455 38.3129 8.35096 37.8033 9.42608 36.8526C10.5141 35.8904 11.1383 34.5536 11.1383 33.1848V31.3643C11.1383 29.524 12.7919 27.9983 14.8246 27.9631C15.811 27.9478 16.7521 28.2899 17.4774 28.9313C18.2281 29.5951 18.6587 30.5159 18.6587 31.4573V36.0663C18.6587 39.3195 21.5876 42.017 25.1875 42.0791C25.23 42.0799 25.2723 42.0803 25.3146 42.0803C27.0378 42.0803 28.6707 41.4734 29.9251 40.3641C31.2279 39.2121 31.975 37.6118 31.975 35.9733V30.9651C31.975 30.2933 32.2824 29.636 32.8185 29.1619C33.3337 28.7064 34.0033 28.4655 34.6988 28.4744C36.1426 28.4994 37.3173 29.5836 37.3173 30.8915V33.1725C37.3173 36.4258 40.2462 39.1233 43.8461 39.1854C45.6169 39.2195 47.2986 38.607 48.5838 37.4704C49.8867 36.3184 50.6337 34.718 50.6337 33.0795V30.9651C50.6337 30.2933 50.9411 29.636 51.4772 29.1619C51.9924 28.7064 52.6615 28.4655 53.3575 28.4744C54.8013 28.4994 55.976 29.5836 55.976 30.8915V37.051C55.976 39.7719 58.4258 42.0279 61.4369 42.0799C61.4555 42.0803 61.4802 42.0803 61.4988 42.0799C64.51 42.0279 66.9598 39.772 66.9598 37.051V30.1333C66.9598 29.3215 67.4128 28.5963 68.1016 28.1566V47.045C68.102 49.3014 66.0658 51.1369 63.5628 51.1369Z" fill="black"/>
</svg>
